<svg width="29" height="27" viewBox="0 0 29 27" fill="none" xmlns="http://www.w3.org/2000/svg">
<path d="M21.6585 26.3333C21.2902 26.333 20.9304 26.2227 20.6251 26.0167L14.4085 21.85C14.3778 21.8289 14.3415 21.8175 14.3043 21.8175C14.2671 21.8175 14.2308 21.8289 14.2001 21.85L7.98346 26.0167C7.67129 26.2251 7.3031 26.3337 6.92777 26.3279C6.55245 26.3221 6.18776 26.2023 5.88213 25.9844C5.5765 25.7665 5.34439 25.4608 5.21662 25.1078C5.08885 24.7549 5.07148 24.3714 5.1668 24.0083L7.20846 16.8083C7.21812 16.7721 7.21694 16.7339 7.2051 16.6983C7.19325 16.6628 7.17124 16.6315 7.1418 16.6083L1.25846 11.9833C0.948743 11.7526 0.719001 11.4307 0.601448 11.0628C0.483896 10.6949 0.484428 10.2995 0.602969 9.93192C0.721511 9.56435 0.952119 9.2431 1.26246 9.0132C1.57279 8.78331 1.9473 8.6563 2.33346 8.65L9.83346 8.36666C9.87034 8.36412 9.90569 8.35096 9.93526 8.32878C9.96483 8.30661 9.98736 8.27635 10.0001 8.24166L12.5835 1.21666C12.7137 0.860529 12.9502 0.553011 13.261 0.335743C13.5717 0.118475 13.9418 0.00195312 14.321 0.00195312C14.7002 0.00195312 15.0702 0.118475 15.381 0.335743C15.6917 0.553011 15.9282 0.860529 16.0585 1.21666L18.6418 8.24166C18.6546 8.27635 18.6771 8.30661 18.7067 8.32878C18.7362 8.35096 18.7716 8.36412 18.8085 8.36666L26.3085 8.65C26.6946 8.6563 27.0691 8.78331 27.3795 9.0132C27.6898 9.2431 27.9204 9.56435 28.039 9.93192C28.1575 10.2995 28.158 10.6949 28.0405 11.0628C27.9229 11.4307 27.6932 11.7526 27.3835 11.9833L21.5001 16.6083C21.4698 16.6308 21.4471 16.662 21.4352 16.6978C21.4232 16.7336 21.4226 16.7722 21.4335 16.8083L23.4751 24.0083C23.5468 24.2845 23.5539 24.5735 23.4959 24.8528C23.4379 25.1322 23.3164 25.3944 23.1407 25.6193C22.965 25.8441 22.74 26.0254 22.4829 26.1493C22.2259 26.2731 21.9438 26.3361 21.6585 26.3333Z" fill="#FF6B00"/>
</svg>
