<svg width="30" height="30" viewBox="0 0 30 30" fill="none" xmlns="http://www.w3.org/2000/svg">
<g clip-path="url(#clip0_9_482)">
<path d="M22.6585 28.3333C22.2902 28.333 21.9304 28.2227 21.6251 28.0167L15.4085 23.85C15.3778 23.8289 15.3415 23.8175 15.3043 23.8175C15.2671 23.8175 15.2308 23.8289 15.2001 23.85L8.98346 28.0167C8.67129 28.2251 8.30309 28.3337 7.92777 28.3279C7.55245 28.3221 7.18776 28.2023 6.88213 27.9844C6.5765 27.7665 6.34439 27.4608 6.21662 27.1078C6.08885 26.7549 6.07148 26.3714 6.16679 26.0083L8.20846 18.8083C8.21811 18.7721 8.21694 18.7339 8.2051 18.6983C8.19325 18.6628 8.17124 18.6315 8.1418 18.6083L2.25846 13.9833C1.94874 13.7526 1.719 13.4307 1.60145 13.0628C1.4839 12.6949 1.48443 12.2995 1.60297 11.9319C1.72151 11.5644 1.95212 11.2431 2.26246 11.0132C2.57279 10.7833 2.9473 10.6563 3.33346 10.65L10.8335 10.3667C10.8703 10.3641 10.9057 10.351 10.9353 10.3288C10.9648 10.3066 10.9874 10.2764 11.0001 10.2417L13.5835 3.21666C13.7137 2.86053 13.9502 2.55301 14.261 2.33574C14.5717 2.11848 14.9418 2.00195 15.321 2.00195C15.7002 2.00195 16.0702 2.11848 16.381 2.33574C16.6917 2.55301 16.9282 2.86053 17.0585 3.21666L19.6418 10.2417C19.6546 10.2764 19.6771 10.3066 19.7067 10.3288C19.7362 10.351 19.7716 10.3641 19.8085 10.3667L27.3085 10.65C27.6946 10.6563 28.0691 10.7833 28.3795 11.0132C28.6898 11.2431 28.9204 11.5644 29.039 11.9319C29.1575 12.2995 29.158 12.6949 29.0405 13.0628C28.9229 13.4307 28.6932 13.7526 28.3835 13.9833L22.5001 18.6083C22.4698 18.6308 22.4471 18.662 22.4352 18.6978C22.4232 18.7336 22.4226 18.7722 22.4335 18.8083L24.4751 26.0083C24.5468 26.2845 24.5539 26.5735 24.4959 26.8528C24.4379 27.1322 24.3164 27.3944 24.1407 27.6193C23.965 27.8441 23.74 28.0254 23.4829 28.1493C23.2259 28.2731 22.9438 28.3361 22.6585 28.3333ZM15.3085 22.15C15.6775 22.1613 16.0346 22.2832 16.3335 22.5L22.5501 26.6667C22.5816 26.6906 22.62 26.7037 22.6596 26.704C22.6992 26.7043 22.7378 26.6918 22.7697 26.6684C22.8016 26.645 22.825 26.6118 22.8365 26.574C22.848 26.5361 22.8469 26.4955 22.8335 26.4583L20.7918 19.2583C20.6913 18.9051 20.6987 18.53 20.8131 18.181C20.9274 17.8321 21.1435 17.5253 21.4335 17.3L27.3168 12.675C27.3489 12.6525 27.3729 12.6202 27.3853 12.583C27.3977 12.5458 27.3979 12.5056 27.3858 12.4683C27.3737 12.431 27.3499 12.3986 27.318 12.3758C27.2861 12.353 27.2477 12.341 27.2085 12.3417L19.7085 12.0583C19.3412 12.044 18.9866 11.9206 18.6897 11.704C18.3929 11.4873 18.1673 11.1871 18.0418 10.8417L15.4585 3.81666C15.4468 3.77936 15.4236 3.74676 15.3921 3.72361C15.3606 3.70046 15.3225 3.68797 15.2835 3.68797C15.2444 3.68797 15.2063 3.70046 15.1749 3.72361C15.1434 3.74676 15.1201 3.77936 15.1085 3.81666L12.5501 10.8333C12.4246 11.1787 12.199 11.4789 11.9022 11.6956C11.6053 11.9123 11.2507 12.0357 10.8835 12.05L3.38346 12.3333C3.34425 12.3327 3.30586 12.3447 3.27395 12.3674C3.24203 12.3902 3.21827 12.4227 3.20615 12.46C3.19402 12.4973 3.19418 12.5375 3.2066 12.5747C3.21902 12.6119 3.24303 12.6441 3.27513 12.6667L9.16679 17.3C9.45591 17.526 9.6713 17.8328 9.78555 18.1815C9.89981 18.5303 9.90779 18.9051 9.80846 19.2583L7.77513 26.4583C7.76299 26.4944 7.76294 26.5334 7.77497 26.5695C7.78699 26.6056 7.81046 26.6368 7.84179 26.6583C7.87198 26.6842 7.9104 26.6983 7.95013 26.6983C7.98985 26.6983 8.02827 26.6842 8.05846 26.6583L14.2751 22.4917C14.5789 22.2901 14.9355 22.1829 15.3001 22.1833L15.3085 22.15Z" fill="#ECF0F1"/>
</g>
<defs>
<clipPath id="clip0_9_482">
<rect width="30" height="30" fill="white"/>
</clipPath>
</defs>
</svg>
