<svg width="219" height="119" viewBox="0 0 219 119" fill="none" xmlns="http://www.w3.org/2000/svg">
<path d="M2.4124 63.5693C2.85627 71.559 7.26061 79.3882 10.1278 86.7154C13.4284 95.1505 16.9973 99.0939 19.5576 87.5726C21.4751 78.944 25.4755 69.6889 29.4638 61.8548C32.0725 56.7305 38.4174 39.9443 38.4174 53.2821" stroke="#FF6B00" stroke-width="3" stroke-linecap="round"/>
<path d="M38.4174 53.2821C41.6196 74.0962 40.1319 95.6824 40.1319 116.72" stroke="#FF6B00" stroke-width="3" stroke-linecap="round"/>
<path d="M39.7071 20.6964C35.7977 21.1851 36.0816 29.5067 30.6376 29.5067C25.4287 29.5067 27.1389 21.0866 28.0464 18.3642" stroke="#FF6B00" stroke-width="3" stroke-linecap="round"/>
<path d="M56.0321 2.03922C56.845 27.2404 60.6964 52.6295 60.6964 77.8339C60.6964 89.9007 59.782 38.4971 70.9319 43.1109C76.2441 45.309 81.922 56.5641 84.5361 61.2498C89.022 69.2905 95.1163 80.0991 91.403 89.7538C87.7025 99.3749 69.7353 103.71 60.4373 101.803C55.6533 100.822 50.2923 97.5364 53.6999 92.9929" stroke="#FF6B00" stroke-width="3" stroke-linecap="round"/>
<path d="M109.671 68.5053C118.732 68.002 117.719 54.7576 110.643 51.6621C104.99 49.1887 86.2232 49.1652 95.6786 59.1768C100.805 64.605 103.824 68.4231 110.449 72.1331C115.113 74.7449 127.163 77.3403 127.163 68.5053" stroke="#FF6B00" stroke-width="3" stroke-linecap="round"/>
<path d="M170.307 47.516C175.056 46.9225 170.035 40.2232 166.161 41.9448C164.379 42.737 168.457 48.8849 170.307 45.1839" stroke="#FF6B00" stroke-width="3" stroke-linecap="round"/>
<path d="M172.639 60.3428C169.697 60.7106 175.764 62.5299 177.045 61.2498C178.086 60.2087 172.338 60.9321 171.473 61.5089" stroke="#FF6B00" stroke-width="3" stroke-linecap="round"/>
<path d="M186.632 21.8625C192.298 27.5285 198.475 32.9562 203.475 39.224C212.504 50.5419 215.457 62.147 216.691 76.4087C217.438 85.0425 218.472 93.606 210.213 98.305C206.741 100.28 202.873 99.4486 199.459 101.155" stroke="#FF6B00" stroke-width="3" stroke-linecap="round"/>
</svg>
